<?xml version="1.0" encoding="UTF-8" standalone="no"?><!DOCTYPE svg PUBLIC "-//W3C//DTD SVG 1.1//EN" "http://www.w3.org/Graphics/SVG/1.1/DTD/svg11.dtd"><svg width="100%" height="100%" viewBox="0 0 180 50" version="1.1" xmlns="http://www.w3.org/2000/svg" xmlns:xlink="http://www.w3.org/1999/xlink" xml:space="preserve" xmlns:serif="http://www.serif.com/" style="fill-rule:evenodd;clip-rule:evenodd;stroke-linejoin:round;stroke-miterlimit:2;"><rect id="b" x="0" y="0" width="180" height="50" style="fill:none;"/><g><path d="M20.698,9.49c0,0 -14.138,0 -14.138,14.139l0,1.821c0,0 0,14.138 14.138,14.138l134.288,0c-0,0 14.138,0 14.138,-14.138l-0,-1.821c-0,-0 -0,-14.139 -14.138,-14.139l-134.288,0Z" style="fill:#f00;fill-rule:nonzero;"/><path d="M18.922,18.855l-0,11.643l3.057,0c3.519,0 6.053,-2.345 6.053,-5.821c-0,-3.477 -2.534,-5.822 -6.053,-5.822l-3.057,-0Zm-1.738,13.256l-0,-14.868l4.795,-0c4.524,-0 7.833,3.015 7.833,7.434c-0,4.418 -3.309,7.434 -7.833,7.434l-4.795,0Z" style="fill-rule:nonzero;"/><path d="M45.918,24.677c0,-3.602 -2.638,-6.178 -6.136,-6.178c-3.497,-0 -6.136,2.576 -6.136,6.178c0,3.602 2.639,6.177 6.136,6.177c3.498,0 6.136,-2.575 6.136,-6.177m-14.031,-0c0,-4.649 3.498,-7.811 7.895,-7.811c4.398,-0 7.896,3.162 7.896,7.811c-0,4.648 -3.498,7.811 -7.896,7.811c-4.397,-0 -7.895,-3.163 -7.895,-7.811" style="fill-rule:nonzero;"/><path d="M52.916,32.111l-3.853,-14.869l1.821,0l2.974,12.377l3.1,-12.377l1.863,0l3.1,12.419l2.995,-12.419l1.801,0l-3.854,14.869l-1.906,0l-3.078,-12.209l-3.057,12.209l-1.906,0Z" style="fill-rule:nonzero;"/><path d="M69.254,32.111l-0,-14.869l1.863,0l8.88,11.979l0,-11.979l1.696,0l0,14.869l-1.696,0l-9.047,-12.356l-0,12.356l-1.696,0Z" style="fill-rule:nonzero;"/><path d="M85.759,32.111l-0,-14.869l1.738,0l-0,13.256l6.617,0l0,1.613l-8.355,0Z" style="fill-rule:nonzero;"/><path d="M108.545,24.677c-0,-3.602 -2.639,-6.178 -6.136,-6.178c-3.497,-0 -6.136,2.576 -6.136,6.178c-0,3.602 2.639,6.177 6.136,6.177c3.497,0 6.136,-2.575 6.136,-6.177m-14.031,-0c-0,-4.649 3.497,-7.811 7.895,-7.811c4.398,-0 7.895,3.162 7.895,7.811c-0,4.648 -3.497,7.811 -7.895,7.811c-4.398,-0 -7.895,-3.163 -7.895,-7.811" style="fill-rule:nonzero;"/><path d="M115.039,26.771l5.55,-0l-2.785,-7.56l-2.765,7.56Zm-3.79,5.34l5.591,-14.869l1.948,0l5.591,14.869l-1.822,-0l-1.424,-3.727l-6.659,-0l-1.403,3.727l-1.822,-0Z" style="fill-rule:nonzero;"/><path d="M128.403,18.855l0,11.643l3.058,0c3.518,0 6.051,-2.345 6.051,-5.821c0,-3.477 -2.533,-5.822 -6.051,-5.822l-3.058,-0Zm-1.738,13.256l0,-14.868l4.796,-0c4.524,-0 7.832,3.015 7.832,7.434c-0,4.418 -3.308,7.434 -7.832,7.434l-4.796,0Z" style="fill-rule:nonzero;"/><path d="M157.753,28.598l-3.918,0l3.918,-4.51l-1.855,-0l-0,-5.035l-5.164,0l0,5.035l-1.855,-0l3.918,4.51l-3.918,0l-0,1.088l8.874,0l-0,-1.088Z" style="fill-rule:nonzero;"/><path d="M153.316,16.272c-4.465,0 -8.098,3.633 -8.098,8.097c0,4.465 3.633,8.098 8.098,8.098c4.465,-0 8.098,-3.633 8.098,-8.098c-0,-4.464 -3.633,-8.097 -8.098,-8.097m-0,17.504c-5.187,-0 -9.407,-4.22 -9.407,-9.407c0,-5.187 4.22,-9.406 9.407,-9.406c5.187,0 9.407,4.219 9.407,9.406c-0,5.187 -4.22,9.407 -9.407,9.407" style="fill-rule:nonzero;"/></g></svg>