<?xml version="1.0" encoding="UTF-8" standalone="no"?><!DOCTYPE svg PUBLIC "-//W3C//DTD SVG 1.1//EN" "http://www.w3.org/Graphics/SVG/1.1/DTD/svg11.dtd"><svg width="100%" height="100%" viewBox="0 0 180 50" version="1.1" xmlns="http://www.w3.org/2000/svg" xmlns:xlink="http://www.w3.org/1999/xlink" xml:space="preserve" xmlns:serif="http://www.serif.com/" style="fill-rule:evenodd;clip-rule:evenodd;stroke-linejoin:round;stroke-miterlimit:2;"><rect id="c" x="0" y="-0" width="180" height="50" style="fill:none;"/><g><path d="M19.011,7.273c0,-0 -9.255,-0 -9.255,9.254l0,12.214c0,-0 0,9.255 9.255,9.255l149.978,-0c-0,-0 9.255,-0 9.255,-9.255l-0,-12.214c-0,0 -0,-9.254 -9.255,-9.254l-149.978,-0Z" style="fill:#00e656;fill-rule:nonzero;"/><path d="M50.019,19.258l0,6.693l1.764,-0c1.958,-0 3.476,-1.355 3.476,-3.347c0,-1.991 -1.518,-3.346 -3.476,-3.346l-1.764,-0Zm-2.66,9.142l-0,-11.59l4.424,-0c3.509,-0 6.17,2.35 6.17,5.794c-0,3.445 -2.661,5.796 -6.17,5.796l-4.424,-0Z" style="fill-rule:nonzero;"/><path d="M65.135,24.417c0,-1.11 -0.783,-1.846 -1.812,-1.846c-1.028,0 -1.812,0.736 -1.812,1.846c0,1.109 0.784,1.844 1.812,1.844c1.029,0 1.812,-0.735 1.812,-1.844m-6.17,-0c-0,-2.514 2.057,-4.179 4.358,-4.179c2.302,-0 4.359,1.665 4.359,4.179c0,2.513 -2.057,4.179 -4.359,4.179c-2.301,-0 -4.358,-1.666 -4.358,-4.179" style="fill-rule:nonzero;"/><path d="M70.588,28.399l-2.449,-7.966l2.678,0l0.962,4.392l1.192,-4.392l2.351,0l1.175,4.392l0.963,-4.392l2.677,0l-2.448,7.966l-2.335,0l-1.224,-4.538l-1.191,4.538l-2.351,0Z" style="fill-rule:nonzero;"/><path d="M81.166,28.399l-0,-7.966l2.301,0l0,0.947c0.539,-0.718 1.405,-1.142 2.465,-1.142c1.877,-0 3.102,1.273 3.102,3.248l-0,4.913l-2.547,0l0,-4.521c0,-0.996 -0.522,-1.519 -1.388,-1.519c-0.864,0 -1.387,0.523 -1.387,1.519l0,4.521l-2.546,0Z" style="fill-rule:nonzero;"/><rect x="90.699" y="16.81" width="2.547" height="11.59"/><path d="M100.787,24.417c0,-1.11 -0.783,-1.846 -1.812,-1.846c-1.028,0 -1.812,0.736 -1.812,1.846c0,1.109 0.784,1.844 1.812,1.844c1.029,0 1.812,-0.735 1.812,-1.844m-6.17,-0c-0,-2.514 2.057,-4.179 4.358,-4.179c2.302,-0 4.359,1.665 4.359,4.179c0,2.513 -2.057,4.179 -4.359,4.179c-2.301,-0 -4.358,-1.666 -4.358,-4.179" style="fill-rule:nonzero;"/><path d="M110.484,24.498l-0,-0.163c-0.049,-1.045 -0.833,-1.763 -1.812,-1.763c-1.029,-0 -1.812,0.735 -1.812,1.845c-0,1.109 0.783,1.844 1.812,1.844c0.979,-0 1.763,-0.702 1.812,-1.763m0.718,3.901l-0.278,-0.995c-0.718,0.767 -1.697,1.191 -2.741,1.191c-2.041,0 -3.869,-1.665 -3.869,-4.178c-0,-2.515 1.828,-4.179 3.869,-4.179c0.978,-0 1.925,0.375 2.627,1.077l0,-0.882l2.22,0l0,6.171l0.49,1.795l-2.318,0Z" style="fill-rule:nonzero;"/><path d="M120.621,24.498l0,-0.081c0,-1.11 -0.783,-1.845 -1.812,-1.845c-1.028,-0 -1.812,0.735 -1.812,1.845c0,1.109 0.784,1.844 1.812,1.844c0.979,-0 1.763,-0.702 1.812,-1.763m0.327,3.901l-0,-0.881c-0.702,0.702 -1.649,1.077 -2.628,1.077c-2.041,0 -3.869,-1.665 -3.869,-4.178c-0,-2.515 1.828,-4.179 3.869,-4.179c0.832,-0 1.648,0.294 2.301,0.8l0,-4.228l2.547,-0l-0,11.589l-2.22,0Z" style="fill-rule:nonzero;"/><path d="M128.734,28.399l0,-11.589l2.808,-0l4.979,7.361l0,-7.361l2.611,-0l0,11.589l-2.758,0l-5.028,-7.427l0,7.427l-2.612,0Z" style="fill-rule:nonzero;"/><path d="M146.789,24.417c-0,-1.11 -0.784,-1.846 -1.812,-1.846c-1.029,0 -1.812,0.736 -1.812,1.846c-0,1.109 0.783,1.844 1.812,1.844c1.028,0 1.812,-0.735 1.812,-1.844m-6.171,-0c0,-2.514 2.057,-4.179 4.359,-4.179c2.302,-0 4.358,1.665 4.358,4.179c0,2.513 -2.056,4.179 -4.358,4.179c-2.302,-0 -4.359,-1.666 -4.359,-4.179" style="fill-rule:nonzero;"/><path d="M152.258,28.399l-2.449,-7.966l2.677,0l0.963,4.392l1.192,-4.392l2.35,0l1.175,4.392l0.964,-4.392l2.677,0l-2.449,7.966l-2.334,0l-1.224,-4.538l-1.192,4.538l-2.35,0Z" style="fill-rule:nonzero;"/><path d="M162.983,25.885l2.579,0l-0,2.514l-2.579,0l-0,-2.514Zm0.261,-0.962l-0.359,-8.113l2.774,-0l-0.342,8.113l-2.073,-0Z" style="fill-rule:nonzero;"/><path d="M27.515,30.871l-7.411,-6.925l1.748,-1.87l6.52,6.091l6.228,-6.051l1.785,1.837l-7.104,6.901l-1.766,0.017Z" style="fill-rule:nonzero;"/><path d="M27.515,24.419l-7.411,-6.925l1.748,-1.871l6.52,6.092l6.228,-6.051l1.785,1.837l-7.104,6.901l-1.766,0.017Z" style="fill-rule:nonzero;"/></g></svg>