<?xml version="1.0" encoding="UTF-8" standalone="no"?><!DOCTYPE svg PUBLIC "-//W3C//DTD SVG 1.1//EN" "http://www.w3.org/Graphics/SVG/1.1/DTD/svg11.dtd"><svg width="100%" height="100%" viewBox="0 0 120 100" version="1.1" xmlns="http://www.w3.org/2000/svg" xmlns:xlink="http://www.w3.org/1999/xlink" xml:space="preserve" xmlns:serif="http://www.serif.com/" style="fill-rule:evenodd;clip-rule:evenodd;stroke-linejoin:round;stroke-miterlimit:2;"><rect id="d" x="0" y="-0" width="120" height="100" style="fill:none;"/><g><path d="M25.381,5.691c-0,-0 -7.293,-0 -7.293,7.292l-0,73.393c-0,0 -0,7.293 7.293,7.293l75.238,-0c0,-0 7.293,-0 7.293,-7.293l0,-73.393c0,0 0,-7.292 -7.293,-7.292l-75.238,-0Z" style="fill:#fff;fill-rule:nonzero;"/><path d="M85.643,52.11c-0,0 -13.71,-23.437 3.702,-41.533c-33.256,8.439 -48.174,41.533 -48.174,41.533l-15.979,0l38.215,23.229l38.215,-23.229l-15.979,0Z" style="fill:#f00;fill-rule:nonzero;"/><g><path d="M24.488,84.299c0,-2.057 1.547,-3.456 3.539,-3.456c0.741,0 1.362,0.158 2.029,0.408l0,1.593l-1.927,-0.62c-1.26,-0 -2.112,0.861 -2.112,2.075c0,1.195 0.889,2.057 2.252,2.057c0.453,-0 1,-0.148 1.436,-0.445l0.518,1.297c-0.556,0.361 -1.334,0.547 -2.196,0.547c-1.992,-0 -3.539,-1.399 -3.539,-3.456" style="fill-rule:nonzero;"/><rect x="30.916" y="81.01" width="1.445" height="6.578"/><path d="M33.361,83.066l1.445,0l0,4.522l-1.445,-0l-0,-4.522Zm-0,-2.056l1.445,-0l0,1.26l-1.445,-0l-0,-1.26Z" style="fill-rule:nonzero;"/><path d="M35.584,85.327c-0,-1.426 1.139,-2.371 2.427,-2.371c0.473,-0 0.917,0.139 1.279,0.315l-0,1.426l-1.195,-0.416c-0.631,-0 -1.066,0.426 -1.066,1.028c0,0.621 0.473,1.065 1.149,1.065c0.296,0 0.621,-0.111 0.834,-0.287l0.482,1.204c-0.371,0.251 -0.899,0.408 -1.483,0.408c-1.288,-0 -2.427,-0.945 -2.427,-2.372" style="fill-rule:nonzero;"/><path d="M40.187,87.588l0,-6.578l1.445,-0l0,4.132l1.455,-2.075l1.742,-0l-1.76,2.168l1.75,2.353l-1.806,-0l-1.381,-2.223l0,2.223l-1.445,-0Z" style="fill-rule:nonzero;"/><path d="M49.31,87.588c-1.176,-0 -1.667,-0.463 -1.667,-1.51l0,-1.807l-0.639,0l-0,-1.204l0.639,-0l0,-1.093l1.445,-0l0,1.093l1.455,-0l-0.537,1.204l-0.918,0l0,1.557c0,0.37 0.14,0.592 0.482,0.592l0.436,-0.037l-0,1.205l-0.696,-0Z" style="fill-rule:nonzero;"/><path d="M54.118,85.327c-0,-0.63 -0.444,-1.046 -1.028,-1.046c-0.584,-0 -1.029,0.416 -1.029,1.046c0,0.631 0.445,1.047 1.029,1.047c0.584,0 1.028,-0.416 1.028,-1.047m-3.502,0c-0,-1.426 1.167,-2.371 2.474,-2.371c1.306,-0 2.474,0.945 2.474,2.371c-0,1.427 -1.168,2.372 -2.474,2.372c-1.307,-0 -2.474,-0.945 -2.474,-2.372" style="fill-rule:nonzero;"/><path d="M60.008,82.4l0,3.798l1,0c1.112,0 1.974,-0.769 1.974,-1.899c-0,-1.131 -0.862,-1.899 -1.974,-1.899l-1,-0Zm-1.511,5.188l0,-6.578l2.511,-0c1.992,-0 3.502,1.334 3.502,3.289c0,1.955 -1.51,3.289 -3.502,3.289l-2.511,-0Z" style="fill-rule:nonzero;"/><path d="M68.585,85.327c-0,-0.63 -0.444,-1.046 -1.028,-1.046c-0.584,-0 -1.029,0.416 -1.029,1.046c-0,0.631 0.445,1.047 1.029,1.047c0.584,0 1.028,-0.416 1.028,-1.047m-3.502,0c-0,-1.426 1.167,-2.371 2.474,-2.371c1.306,-0 2.474,0.945 2.474,2.371c-0,1.427 -1.168,2.372 -2.474,2.372c-1.307,-0 -2.474,-0.945 -2.474,-2.372" style="fill-rule:nonzero;"/><path d="M71.688,87.588l-1.39,-4.521l1.519,-0l0.546,2.492l0.677,-2.492l1.334,-0l0.667,2.492l0.547,-2.492l1.519,-0l-1.389,4.521l-1.325,-0l-0.695,-2.576l-0.676,2.576l-1.334,-0Z" style="fill-rule:nonzero;"/><path d="M77.689,87.588l-0,-4.521l1.306,-0l-0,0.537c0.306,-0.407 0.797,-0.649 1.399,-0.649c1.066,0 1.76,0.723 1.76,1.844l0,2.789l-1.445,-0l-0,-2.566c-0,-0.566 -0.297,-0.862 -0.787,-0.862c-0.491,-0 -0.788,0.296 -0.788,0.862l0,2.566l-1.445,-0Z" style="fill-rule:nonzero;"/><rect x="83.098" y="81.01" width="1.445" height="6.578"/><path d="M88.822,85.327c0,-0.63 -0.444,-1.046 -1.028,-1.046c-0.584,-0 -1.029,0.416 -1.029,1.046c0,0.631 0.445,1.047 1.029,1.047c0.584,0 1.028,-0.416 1.028,-1.047m-3.502,0c0,-1.426 1.168,-2.371 2.474,-2.371c1.307,-0 2.474,0.945 2.474,2.371c0,1.427 -1.167,2.372 -2.474,2.372c-1.306,-0 -2.474,-0.945 -2.474,-2.372" style="fill-rule:nonzero;"/><path d="M94.323,85.373l0,-0.092c-0.027,-0.593 -0.472,-1 -1.028,-1c-0.584,-0 -1.028,0.417 -1.028,1.046c-0,0.63 0.444,1.047 1.028,1.047c0.556,0 1.001,-0.398 1.028,-1.001m0.409,2.215l-0.158,-0.565c-0.408,0.435 -0.964,0.676 -1.556,0.676c-1.159,0 -2.197,-0.944 -2.197,-2.372c0,-1.426 1.038,-2.371 2.197,-2.371c0.555,-0 1.092,0.213 1.491,0.611l-0,-0.5l1.26,-0l0,3.502l0.278,1.019l-1.315,0Z" style="fill-rule:nonzero;"/><path d="M100.066,85.373l0,-0.046c0,-0.629 -0.444,-1.046 -1.028,-1.046c-0.584,-0 -1.029,0.417 -1.029,1.046c0,0.63 0.445,1.047 1.029,1.047c0.556,0 1,-0.398 1.028,-1.001m0.185,2.215l0,-0.501c-0.398,0.399 -0.935,0.612 -1.491,0.612c-1.158,0 -2.196,-0.944 -2.196,-2.372c-0,-1.426 1.038,-2.371 2.196,-2.371c0.472,-0 0.936,0.166 1.306,0.454l0,-2.4l1.446,0l-0,6.578l-1.261,0Z" style="fill-rule:nonzero;"/></g></g></svg>