<?xml version="1.0" encoding="UTF-8" standalone="no"?><!DOCTYPE svg PUBLIC "-//W3C//DTD SVG 1.1//EN" "http://www.w3.org/Graphics/SVG/1.1/DTD/svg11.dtd"><svg width="100%" height="100%" viewBox="0 0 120 100" version="1.1" xmlns="http://www.w3.org/2000/svg" xmlns:xlink="http://www.w3.org/1999/xlink" xml:space="preserve" xmlns:serif="http://www.serif.com/" style="fill-rule:evenodd;clip-rule:evenodd;stroke-linejoin:round;stroke-miterlimit:2;"><rect id="e" x="0" y="-0" width="120" height="100" style="fill:none;"/><g><path d="M18.844,5.029c0,0 -8.991,0 -8.991,8.991l-0,65.439c-0,-0 -0,8.991 8.991,8.991l89.912,0c0,0 8.992,0 8.992,-8.991l-0,-65.439c-0,0 -0,-8.991 -8.992,-8.991l-89.912,0Z" style="fill:#fff;fill-rule:nonzero;"/><path d="M17.955,27.919l-0,-1.461l2.553,0.909c1.066,-0 1.737,-0.422 1.737,-1.383c0,-2.119 -4.198,-1.435 -4.198,-4.594c-0,-1.46 1.145,-2.447 2.724,-2.447c0.856,-0 1.698,0.315 2.383,0.631l-0,1.474l-2.369,-0.869c-0.882,0 -1.382,0.501 -1.382,1.185c-0,1.921 4.198,1.527 4.198,4.594c0,1.619 -1.237,2.685 -3.066,2.646c-0.909,-0 -1.725,-0.277 -2.58,-0.685" style="fill-rule:nonzero;"/><path d="M27.339,28.446c-1.408,-0 -2.093,-0.764 -2.093,-2.08l-0,-3.147l-0.935,0l0,-1.196l0.961,-0l0,-1.54l1.29,-0l0,1.54l2.04,-0l-0.526,1.196l-1.514,0l0,3.055c0,0.618 0.25,0.973 0.882,0.973l0.619,-0.052l0,1.251l-0.724,-0Z" style="fill-rule:nonzero;"/><path d="M34.446,25.234c0,-1.25 -0.921,-2.159 -2.08,-2.159c-1.158,-0 -2.079,0.909 -2.079,2.159c-0,1.25 0.921,2.158 2.079,2.158c1.159,0 2.08,-0.908 2.08,-2.158m0.395,3.212l-0.276,-1.014c-0.579,0.75 -1.435,1.172 -2.33,1.172c-1.725,-0 -3.278,-1.343 -3.278,-3.37c0,-2.027 1.553,-3.37 3.278,-3.37c0.895,0 1.738,0.421 2.316,1.159l0,-1.001l1.212,0l-0,4.976l0.394,1.448l-1.316,-0Z" style="fill-rule:nonzero;"/><path d="M38.921,28.446l-1.317,-0l0,-6.423l1.211,-0l0,0.92c0.382,-0.684 0.987,-0.92 1.777,-0.92l0.434,-0l0,1.196l-0.315,0c-0.948,0 -1.487,0.264 -1.79,1.041l-0,4.186Z" style="fill-rule:nonzero;"/><path d="M44.58,28.446c-1.408,-0 -2.093,-0.764 -2.093,-2.08l0,-3.147l-0.934,0l-0,-1.196l0.961,-0l-0,-1.54l1.29,-0l-0,1.54l2.04,-0l-0.526,1.196l-1.514,0l-0,3.055c-0,0.618 0.25,0.973 0.882,0.973l0.618,-0.052l0,1.251l-0.724,-0Z" style="fill-rule:nonzero;"/><path d="M51.411,20.364l-0,6.818l1.711,0c2.066,0 3.554,-1.343 3.554,-3.409c-0,-2.067 -1.488,-3.409 -3.554,-3.409l-1.711,-0Zm-1.343,8.082l0,-9.346l3.054,0c2.856,0 4.922,1.895 4.922,4.673c0,2.777 -2.066,4.673 -4.922,4.673l-3.054,-0Z" style="fill-rule:nonzero;"/><path d="M64.612,25.234c-0,-1.264 -0.935,-2.172 -2.093,-2.172c-1.158,0 -2.092,0.908 -2.092,2.172c-0,1.263 0.934,2.171 2.092,2.171c1.158,0 2.093,-0.908 2.093,-2.171m-5.502,-0c-0,-2.027 1.619,-3.37 3.409,-3.37c1.79,0 3.409,1.343 3.409,3.37c0,2.027 -1.619,3.37 -3.409,3.37c-1.79,-0 -3.409,-1.343 -3.409,-3.37" style="fill-rule:nonzero;"/><path d="M68.573,28.446l-2.067,-6.423l1.37,-0l1.315,4.632l1.33,-4.632l1.224,-0l1.316,4.646l1.316,-4.646l1.369,-0l-2.066,6.423l-1.237,-0l-1.317,-4.41l-1.303,4.41l-1.25,-0Z" style="fill-rule:nonzero;"/><path d="M76.838,28.446l0,-6.423l1.211,-0l0,1.039c0.408,-0.75 1.184,-1.198 2.146,-1.198c1.473,0 2.487,1.027 2.487,2.646l0,3.936l-1.316,-0l-0,-3.752c-0,-1.106 -0.645,-1.684 -1.606,-1.684c-0.961,-0 -1.606,0.578 -1.606,1.684l-0,3.752l-1.316,-0Z" style="fill-rule:nonzero;"/><rect x="84.406" y="19.1" width="1.316" height="9.345"/><path d="M92.619,25.234c-0,-1.264 -0.935,-2.172 -2.093,-2.172c-1.158,0 -2.093,0.908 -2.093,2.172c0,1.263 0.935,2.171 2.093,2.171c1.158,0 2.093,-0.908 2.093,-2.171m-5.502,-0c0,-2.027 1.619,-3.37 3.409,-3.37c1.79,0 3.409,1.343 3.409,3.37c0,2.027 -1.619,3.37 -3.409,3.37c-1.79,-0 -3.409,-1.343 -3.409,-3.37" style="fill-rule:nonzero;"/><path d="M100.424,25.234c-0,-1.25 -0.922,-2.159 -2.08,-2.159c-1.158,-0 -2.08,0.909 -2.08,2.159c0,1.25 0.922,2.158 2.08,2.158c1.158,0 2.08,-0.908 2.08,-2.158m0.394,3.212l-0.276,-1.014c-0.579,0.75 -1.435,1.172 -2.33,1.172c-1.724,-0 -3.277,-1.343 -3.277,-3.37c-0,-2.027 1.553,-3.37 3.277,-3.37c0.895,0 1.738,0.421 2.317,1.159l-0,-1.001l1.211,0l-0,4.976l0.394,1.448l-1.316,-0Z" style="fill-rule:nonzero;"/><path d="M108.689,25.326l-0,-0.185c-0.067,-1.197 -0.935,-2.079 -2.093,-2.079c-1.158,0 -2.093,0.908 -2.093,2.172c0,1.263 0.935,2.172 2.093,2.172c1.158,-0 2.026,-0.856 2.093,-2.08m0.105,3.119l-0,-1.014c-0.579,0.751 -1.435,1.173 -2.33,1.173c-1.724,-0 -3.277,-1.343 -3.277,-3.37c-0,-2.027 1.553,-3.37 3.277,-3.37c0.843,0 1.646,0.382 2.225,1.053l-0,-3.817l1.316,0l-0,9.345l-1.211,0Z" style="fill-rule:nonzero;"/><rect x="17.595" y="12.043" width="92.41" height="1.586" style="fill:#f00;"/><rect x="17.595" y="79.546" width="92.41" height="1.586" style="fill:#f00;"/><path d="M36.132,36.464c-9.347,-0 -16.951,7.604 -16.951,16.95c0,9.347 7.604,16.952 16.951,16.952c9.347,-0 16.952,-7.605 16.952,-16.952c-0,-9.346 -7.605,-16.95 -16.952,-16.95m0,35.487c-10.221,0 -18.537,-8.316 -18.537,-18.537c0,-10.221 8.316,-18.536 18.537,-18.536c10.222,-0 18.537,8.315 18.537,18.536c0,10.221 -8.315,18.537 -18.537,18.537" style="fill:#f00;fill-rule:nonzero;"/><path d="M30.842,64.083l-1.682,-2.745l12.803,-7.846l-12.828,-6.363l1.43,-2.884l15.436,7.656l0.126,2.815l-15.285,9.367Z" style="fill:#f00;fill-rule:nonzero;"/></g></svg>