<?xml version="1.0" encoding="UTF-8" standalone="no"?><!DOCTYPE svg PUBLIC "-//W3C//DTD SVG 1.1//EN" "http://www.w3.org/Graphics/SVG/1.1/DTD/svg11.dtd"><svg width="100%" height="100%" viewBox="0 0 60 50" version="1.1" xmlns="http://www.w3.org/2000/svg" xmlns:xlink="http://www.w3.org/1999/xlink" xml:space="preserve" xmlns:serif="http://www.serif.com/" style="fill-rule:evenodd;clip-rule:evenodd;stroke-linejoin:round;stroke-miterlimit:2;"><rect id="f" x="0" y="0" width="60" height="50" style="fill:none;"/><g><path d="M19.36,6.017c-0,0 -7.311,0 -7.311,7.31l0,23.346c0,-0 0,7.31 7.311,7.31l21.28,-0c0,-0 7.311,-0 7.311,-7.31l-0,-23.346c-0,0 -0,-7.31 -7.311,-7.31l-21.28,0Z" style="fill:#f00;fill-rule:nonzero;"/><path d="M29.886,35.277l-9.438,-9.412l2.475,-2.476l5.107,5.338l-0,-12.068l3.713,-0l-0,12.068l5.106,-5.338l2.476,2.476l-9.439,9.412Z" style="fill-rule:nonzero;"/><path d="M19.36,7.092c-0.013,-0 -1.654,0.02 -3.235,0.831c-1.991,1.021 -3.001,2.839 -3.001,5.404l-0,23.346c-0,0.013 0.02,1.653 0.83,3.234c1.022,1.991 2.841,3.001 5.406,3.001l21.277,0c0.039,-0 1.668,-0.026 3.238,-0.831c1.991,-1.021 3.001,-2.839 3.001,-5.404l0,-23.346c0,-0.012 -0.02,-1.653 -0.831,-3.234c-1.021,-1.992 -2.84,-3.001 -5.405,-3.001l-21.28,-0Zm21.28,37.965l-21.28,0c-8.289,0 -8.385,-8.3 -8.385,-8.384l-0,-23.346c-0,-4.325 2.311,-6.388 4.249,-7.357c2.031,-1.016 4.051,-1.027 4.136,-1.027l21.28,-0c6.633,-0 8.385,5.485 8.385,8.384l0,23.346c0,6.632 -5.485,8.384 -8.385,8.384" style="fill:#fff;fill-rule:nonzero;"/></g></svg>