<?xml version="1.0" encoding="UTF-8" standalone="no"?><!DOCTYPE svg PUBLIC "-//W3C//DTD SVG 1.1//EN" "http://www.w3.org/Graphics/SVG/1.1/DTD/svg11.dtd"><svg width="100%" height="100%" viewBox="0 0 180 50" version="1.1" xmlns="http://www.w3.org/2000/svg" xmlns:xlink="http://www.w3.org/1999/xlink" xml:space="preserve" xmlns:serif="http://www.serif.com/" style="fill-rule:evenodd;clip-rule:evenodd;stroke-miterlimit:1;"><rect id="g" x="0" y="0" width="180" height="50" style="fill:none;"/><g><path d="M20.76,8.12c-0,0 -9.166,0 -9.166,8.863l-0,10.405c-0,-0 -0,8.863 9.166,8.863l138.304,-0c0,-0 9.166,-0 9.166,-8.863l-0,-10.405c-0,0 -0,-8.863 -9.166,-8.863l-138.304,0Z" style="fill:#fff;fill-rule:nonzero;"/><path d="M45.179,19.341l-0,6.944l1.707,0c2.043,0 3.545,-1.371 3.545,-3.472c0,-2.101 -1.502,-3.472 -3.545,-3.472l-1.707,-0Zm-1.882,8.652l-0,-10.36l3.589,0c3.151,0 5.471,2.102 5.471,5.18c0,3.078 -2.32,5.18 -5.471,5.18l-3.589,0Z" style="fill:#00e656;fill-rule:nonzero;"/><path d="M63.797,22.813c-0,-2.203 -1.576,-3.736 -3.634,-3.736c-2.086,0 -3.647,1.533 -3.647,3.736c-0,2.204 1.561,3.735 3.647,3.735c2.058,0 3.634,-1.531 3.634,-3.735m-9.164,-0c0,-3.239 2.437,-5.442 5.53,-5.442c3.08,-0 5.516,2.203 5.516,5.442c-0,3.24 -2.436,5.442 -5.516,5.442c-3.093,0 -5.53,-2.202 -5.53,-5.442" style="fill:#00e656;fill-rule:nonzero;"/><path d="M70.246,27.993l-2.831,-10.36l1.926,0l1.795,7.442l1.955,-7.442l1.795,0l1.94,7.442l1.81,-7.442l1.926,0l-2.831,10.36l-1.809,-0l-1.941,-7.339l-1.926,7.339l-1.809,-0Z" style="fill:#00e656;fill-rule:nonzero;"/><path d="M83.057,27.993l-0,-10.36l1.969,0l5.268,7.223l-0,-7.223l1.852,0l0,10.36l-1.852,-0l-5.384,-7.354l-0,7.354l-1.853,-0Z" style="fill:#00e656;fill-rule:nonzero;"/><path d="M95.62,27.993l-0,-10.36l1.882,0l-0,8.653l4.436,-0l-0,1.707l-6.318,-0Z" style="fill:#00e656;fill-rule:nonzero;"/><path d="M112.457,22.813c0,-2.203 -1.575,-3.736 -3.633,-3.736c-2.087,0 -3.648,1.533 -3.648,3.736c0,2.204 1.561,3.735 3.648,3.735c2.058,0 3.633,-1.531 3.633,-3.735m-9.163,-0c-0,-3.239 2.437,-5.442 5.53,-5.442c3.079,-0 5.515,2.203 5.515,5.442c0,3.24 -2.436,5.442 -5.515,5.442c-3.093,0 -5.53,-2.202 -5.53,-5.442" style="fill:#00e656;fill-rule:nonzero;"/><path d="M119.198,24.258l3.108,-0l-1.547,-4.217l-1.561,4.217Zm-3.487,3.735l4.085,-10.36l1.927,0l4.085,10.36l-2.072,-0l-0.788,-1.999l-4.377,-0l-0.773,1.999l-2.087,-0Z" style="fill:#00e656;fill-rule:nonzero;"/><path d="M130.011,19.341l0,6.944l1.708,0c2.042,0 3.545,-1.371 3.545,-3.472c0,-2.101 -1.503,-3.472 -3.545,-3.472l-1.708,-0Zm-1.881,8.652l-0,-10.36l3.589,0c3.151,0 5.471,2.102 5.471,5.18c0,3.078 -2.32,5.18 -5.471,5.18l-3.589,0Z" style="fill:#00e656;fill-rule:nonzero;"/><path d="M30.853,27.907l4.536,-5.201l-4.52,-4.987" style="fill:none;fill-rule:nonzero;stroke:#007eff;stroke-width:2px;"/><path d="M26.978,27.907l4.536,-5.201l-4.52,-4.987" style="fill:none;fill-rule:nonzero;stroke:#007eff;stroke-width:2px;"/><path d="M34.729,27.907l4.535,-5.201l-4.52,-4.987" style="fill:none;fill-rule:nonzero;stroke:#007eff;stroke-width:2px;"/><path d="M149.483,17.719l-4.535,5.201l4.519,4.987" style="fill:none;fill-rule:nonzero;stroke:#007eff;stroke-width:2px;"/><path d="M153.358,17.719l-4.536,5.201l4.52,4.987" style="fill:none;fill-rule:nonzero;stroke:#007eff;stroke-width:2px;"/><path d="M145.607,17.719l-4.536,5.201l4.52,4.987" style="fill:none;fill-rule:nonzero;stroke:#007eff;stroke-width:2px;"/></g></svg>